# xmcd
#
# Track frame offsets: 
#        150
#        26896
#        52197
#        71962
#        99618
#        125339
#        153678
#        175253
#        199526
#        227403
#        246852
#        267384
#        287297
#        311333
#        334909
#
# Disc length: 4679 seconds
#
# Revision: 3
# Processed by: cddbd v1.5.2PL0 Copyright (c) Steve Scherf et al.
# Submitted via: ExactAudioCopy v1.3
#
DISCID=db12450f
DTITLE=Various Artist - #globe 20th -SPECIAL COVER BEST-
DYEAR=2015
DGENRE=JPop
TTITLE0=HYDE - DEPARTURES
TTITLE1=木村カエラ - FACES PLACES
TTITLE2=AAA - Joy to the love
TTITLE3=浜崎あゆみ - Many Classic Moments
TTITLE4=坂本美雨 - Precious Memories
TTITLE5=GReeeeN - FACE
TTITLE6=當山みれい - Can't Stop Fallin' in Love
TTITLE7=Da-iCE - FREEDOM
TTITLE8=倖田來未 - Wanderin' Destiny
TTITLE9=超特急 - Love again
TTITLE10=hitomi - Anytime smokin' cigarette
TTITLE11=lol - SWEET PAIN
TTITLE12=TRF - wanna Be A Dreammaker
TTITLE13=梅田彩佳 - Sa Yo Na Ra
TTITLE14=小室哲哉 - Feel Like dance (Piano Solo)
EXTD=
EXTT0=
EXTT1=
EXTT2=
EXTT3=
EXTT4=
EXTT5=
EXTT6=
EXTT7=
EXTT8=
EXTT9=
EXTT10=
EXTT11=
EXTT12=
EXTT13=
EXTT14=
PLAYORDER=
